<?xml version="1.0" standalone="no"?><!DOCTYPE svg PUBLIC "-//W3C//DTD SVG 1.1//EN" "http://www.w3.org/Graphics/SVG/1.1/DTD/svg11.dtd"><svg t="1512273393708" class="icon" style="" viewBox="0 0 1024 1024" version="1.1" xmlns="http://www.w3.org/2000/svg" p-id="11883" xmlns:xlink="http://www.w3.org/1999/xlink" width="32" height="32"><defs><style type="text/css"></style></defs><path d="M8.8416 429.568a116.48 116.48 0 0 0 73.728 62.912c11.392 3.52 23.872 5.248 39.36 5.248h110.784c-23.936 53.376-11.648 98.816 36.672 135.296-25.92 30.144-32.896 65.088-20.032 101.504 12.032 33.28 36.8 56 75.776 69.376-8.448 14.016-13.312 28.8-14.656 44.224-2.88 41.6 16.64 91.584 79.872 106.88 12.928 3.392 24.384 4.992 36.032 4.992h322.816a43.008 43.008 0 0 0 21.568-5.376l18.56-9.856c24.256-13.12 48.448-26.112 72.704-39.36a34.944 34.944 0 0 1 17.088-3.968c42.56 0.192 85.248-0.064 127.68 0.192 11.776 0 17.28-5.44 17.28-17.152-0.128-195.776-0.128-391.36 0-586.688 0-17.856-13.504-17.856-18.56-17.856-41.088 0.384-81.856 0-122.816 0.384a21.952 21.952 0 0 1-16.192-6.528l-7.68-6.72c-63.744-56.448-127.744-113.152-192-169.536-39.552-34.752-85.504-42.752-131.072-22.784-38.336 16.704-63.232 47.424-68.416 84.352-4.992 35.648 9.728 71.424 39.296 95.552 9.792 8 19.328 16.32 29.44 25.28l-361.216-0.128c-15.808 0-33.024 0.064-57.472 0.32-50.304 0.64-87.616 23.872-108.032 67.264-12.288 26.24-12.48 55.424-0.512 82.176z m334.336 3.84c-4.096-4.736-10.496-5.376-15.68-5.376-82.304 0.384-121.6 0.384-203.968 0.192a114.56 114.56 0 0 1-19.264-1.472c-21.696-4.096-41.024-23.104-43.008-42.368-2.112-19.968 11.008-38.656 33.408-47.488 7.936-3.264 16.512-4.736 27.968-4.736h570.176l-14.4-13.568a512.64 512.64 0 0 0-11.776-10.752l-25.024-22.336c-32.32-28.672-64.704-57.344-96.832-86.336-13.504-12.096-19.52-27.712-16.704-42.816 2.816-14.912 14.016-27.008 30.592-33.28a75.52 75.52 0 0 1 26.816-5.248c15.232 0 29.44 5.76 42.24 17.024l61.12 54.08c46.912 41.536 94.016 83.2 140.992 124.544 2.112 1.792 2.816 3.136 2.816 7.68-0.192 174.4-0.192 348.544 0 522.624 0 3.328-0.32 4.16-3.904 6.272-26.304 15.36-52.288 30.976-78.336 46.72a24.448 24.448 0 0 1-12.672 3.264c-102.976-0.192-206.08-0.192-309.056-0.192a93.632 93.632 0 0 1-17.024-1.664 52.672 52.672 0 0 1-41.408-35.136c-4.928-13.504-1.6-26.368 10.432-40.512a57.28 57.28 0 0 1 30.784-17.6c19.136-4.864 21.44-7.936 21.44-27.648-0.192-3.968 0.192-6.528 0.448-9.088 0.768-7.04 1.792-15.808-4.352-21.952-4.8-4.864-11.456-4.864-13.696-4.864-2.56 0-5.376 0.384-8.256 0.704-2.176 0.256-4.48 0.576-6.592 0.576-8.384-0.448-14.4-0.256-20.992-0.128-10.624 0.256-21.888 0.896-34.688-1.92a54.72 54.72 0 0 1-39.232-34.688c-4.544-14.144-0.64-28.48 11.328-41.344a66.56 66.56 0 0 1 20.224-13.632l3.84-1.984c1.216-0.512 3.776-0.576 6.336-0.64 6.08-0.128 16.128-0.384 20.096-11.072 2.56-7.104 1.92-14.592 1.408-21.184-0.128-2.56-0.32-5.184-0.32-7.68a49.92 49.92 0 0 1 0-4.608c0.32-1.344 1.6-8.256-2.688-13.504s-11.392-5.248-13.696-5.248l-2.112 0.064c-18.24 1.152-31.488-1.344-43.392-8.064a48 48 0 0 1-24.448-35.328 42.88 42.88 0 0 1 14.144-36.288c5.952-5.632 13.44-9.408 21.952-13.376 1.6-0.768 4.352-0.96 7.104-1.152 5.952-0.448 15.936-1.152 19.776-11.008 2.624-6.912 1.984-14.528 1.472-21.184a76.8 76.8 0 0 1-0.384-7.616l-7.936-3.392v-0.064l7.808 11.072c0.384-2.304 1.6-19.968-2.88-25.28z m620.096-102.528v6.656a2.688 2.688 0 0 1-0.448-0.832c0 0.064 0.192 0.64 0.192 2.56-0.192 167.04-0.192 334.208 0 501.44v0.32a2498.176 2498.176 0 0 0-68.48 0c-1.408 0.064-2.048-0.064-2.688-0.064v-2.88c0.448-60.224 0.384-120.768 0.32-181.12l-0.064-67.776c0-83.136 0-166.144-0.256-249.28 0-2.24 0.192-2.88 0.256-2.944a3.52 3.52 0 0 1-1.792 1.664l1.792-7.744h0.064l0.704 7.68c23.552 0.32 46.592 0.32 69.632 0l0.768-7.68z" p-id="11884" fill="#ffffff"></path></svg>