<?xml version="1.0" standalone="no"?><!DOCTYPE svg PUBLIC "-//W3C//DTD SVG 1.1//EN" "http://www.w3.org/Graphics/SVG/1.1/DTD/svg11.dtd"><svg t="1512276064559" class="icon" style="" viewBox="0 0 1024 1024" version="1.1" xmlns="http://www.w3.org/2000/svg" p-id="6017" xmlns:xlink="http://www.w3.org/1999/xlink" width="32" height="32"><defs><style type="text/css"></style></defs><path d="M870.4 409.6c-21.094 0-40.653 6.4-56.986 17.357-14.028-39.885-52.019-68.557-96.614-68.557-21.094 0-40.653 6.4-56.986 17.357-14.028-39.885-52.019-68.557-96.614-68.557-18.637 0-36.147 5.018-51.2 13.773V153.6c0-56.474-45.926-102.4-102.4-102.4S307.2 97.126 307.2 153.6v377.498l-68.915-119.45c-13.363-24.32-35.175-41.626-61.389-48.794-25.549-6.963-52.122-3.276-74.854 10.343-46.439 27.853-64.154 90.829-39.424 140.39 1.536 3.123 34.201 70.042 136.192 273.92 48.025 96 100.71 164.66 156.62 203.981 43.879 30.874 74.19 32.46 79.821 32.46h256c43.418 0 83.559-12.543 119.347-37.375 34.612-23.962 64.461-58.983 88.781-104.09 48.077-89.241 73.472-217.395 73.472-370.534 0-56.474-45.926-102.4-102.4-102.4z m-16.128 448.666C826.163 910.54 775.014 972.8 691.2 972.8H435.712c-1.997-0.154-23.552-2.56-56.064-26.88-32.41-24.269-82.176-75.366-135.066-181.248C140.8 557.107 108.902 491.725 108.595 491.11c-0.051-0.102-0.051-0.153-0.102-0.204-12.851-25.754-3.738-59.495 19.917-73.677 10.65-6.4 23.09-8.09 35.072-4.864 12.748 3.481 23.45 12.083 30.054 24.166 0.102 0.154 0.205 0.359 0.307 0.512l79.923 138.496c16.333 29.85 34.714 42.394 54.63 37.325 19.969-5.069 30.055-25.037 30.055-59.238V153.65c0-28.211 22.989-51.2 51.2-51.2s51.2 22.989 51.2 51.2v332.8c0 14.131 11.469 25.6 25.6 25.6s25.6-11.469 25.6-25.6v-76.8c0-28.211 22.989-51.2 51.2-51.2s51.2 22.989 51.2 51.2v76.8c0 14.131 11.469 25.6 25.6 25.6s25.6-11.469 25.6-25.6v-25.6c0-28.211 22.989-51.2 51.2-51.2s51.2 22.989 51.2 51.2v76.8c0 14.131 11.469 25.6 25.6 25.6s25.6-11.469 25.6-25.6v-25.6c0-28.211 22.989-51.2 51.2-51.2s51.2 22.989 51.2 51.2c0 144.691-23.296 264.448-67.328 346.266z" p-id="6018" fill="#ffffff"></path></svg>