<?xml version="1.0" standalone="no"?><!DOCTYPE svg PUBLIC "-//W3C//DTD SVG 1.1//EN" "http://www.w3.org/Graphics/SVG/1.1/DTD/svg11.dtd"><svg t="1510759303770" class="icon" style="" viewBox="0 0 1024 1024" version="1.1" xmlns="http://www.w3.org/2000/svg" p-id="2686" xmlns:xlink="http://www.w3.org/1999/xlink" width="32" height="32"><defs><style type="text/css"></style></defs><path d="M512.015052 31.082758c-265.189358 0-480.932295 215.742937-480.932295 480.932295 0 265.189358 215.742937 480.932295 480.932295 480.932295 265.189358 0 480.932295-215.742937 480.932295-480.932295C992.947347 246.825695 777.20441 31.082758 512.015052 31.082758zM512.015052 963.700955c-249.06847 0-451.700955-202.632486-451.700955-451.700955 0-249.053418 202.632486-451.685903 451.700955-451.685903s451.700955 202.632486 451.700955 451.685903C963.700955 761.083522 761.083522 963.700955 512.015052 963.700955z" p-id="2687" fill="#727777"></path><path d="M189.762869 554.161164l0 14.61567c0 167.952256 186.150345 281.430663 323.652036 281.430663 0 0 0 0 0.015052 0 130.321799 0 324.85621-105.470645 331.674849-280.85868l0.602087-15.187653L189.762869 554.161164z" p-id="2688" fill="#727777"></path><path d="M717.62787 447.350875c-18.484081 0-36.561752-9.422666-49.611995-25.844598-13.050243-16.406879-20.54623-39.150728-20.54623-62.391298s7.495987-45.969366 20.54623-62.376246c13.050243-16.421932 31.127914-25.829546 49.611995-25.829546s36.5467 9.407614 49.596943 25.829546c13.065295 16.436984 20.54623 39.16578 20.54623 62.376246 0 23.225518-7.480935 45.954314-20.54623 62.391298C754.17457 437.928208 736.081846 447.350875 717.62787 447.350875z" p-id="2689" fill="#727777"></path><path d="M319.482581 447.365927c-18.514185 0-36.606909-9.422666-49.657151-25.874702-13.050243-16.406879-20.54623-39.150728-20.54623-62.391298s7.495987-45.969366 20.54623-62.376246c13.050243-16.421932 31.142966-25.829546 49.657151-25.829546 18.499133 0 36.606909 9.407614 49.672203 25.829546 13.095399 16.436984 20.591386 39.16578 20.591386 62.376246 0 23.225518-7.495987 45.954314-20.591386 62.391298C356.074438 437.94326 337.966662 447.365927 319.482581 447.365927z" p-id="2690" fill="#727777"></path></svg>