<?xml version="1.0" standalone="no"?><!DOCTYPE svg PUBLIC "-//W3C//DTD SVG 1.1//EN" "http://www.w3.org/Graphics/SVG/1.1/DTD/svg11.dtd"><svg t="1510759228668" class="icon" style="" viewBox="0 0 1024 1024" version="1.1" xmlns="http://www.w3.org/2000/svg" p-id="1345" xmlns:xlink="http://www.w3.org/1999/xlink" width="32" height="32"><defs><style type="text/css"></style></defs><path d="M512.512 0.256c282.24 0.298667 511.317333 230.314667 510.762667 512.938667-0.554667 282.026667-230.613333 510.848-513.066667 510.293333C227.968 1022.805333-0.682667 792.576 0.085333 509.738667 0.853333 228.394667 230.570667-0.085333 512.512 0.256z m470.485333 512.853333C983.466667 253.013333 772.48 40.917333 512.938667 40.533333 252.8 40.106667 40.746667 251.008 40.32 510.549333c-0.426667 260.138667 210.474667 472.192 470.058667 472.661334 260.053333 0.426667 472.192-210.56 472.618666-470.101334z" fill="#727777" p-id="1346"></path><path d="M736 528.768c-7.68 104.192-48.682667 192-126.72 261.461333-9.813333 8.704-24.533333 13.653333-37.76 16.042667-17.109333 3.157333-33.706667-8.746667-39.210667-23.808a37.973333 37.973333 0 0 1 12.885334-44.032c60.373333-45.056 94.634667-106.325333 107.818666-178.944 17.92-99.2-9.984-186.154667-77.824-260.181333-7.808-8.533333-19.541333-13.397333-28.714666-20.864-9.984-8.149333-20.522667-16.213333-15.061334-32.426667 5.461333-16.341333 16.384-25.429333 32.853334-27.605333 16.512-2.176 30.72 2.261333 43.562666 13.994666 76.032 69.376 119.637333 154.282667 126.037334 257.536 0.768 12.928 1.408 25.898667 2.133333 38.826667z" fill="#727777" p-id="1347"></path><path d="M557.098667 517.717333c-3.84 76.373333-35.84 136.618667-99.328 179.584-12.842667 8.661333-27.946667 11.306667-39.68 1.706667-7.978667-6.570667-14.592-19.456-14.634667-29.568-0.042667-8.362667 8.533333-19.968 16.469333-24.661333 66.218667-39.253333 91.306667-124.714667 55.168-192.981334-12.672-23.893333-29.994667-43.733333-53.76-57.642666-19.2-11.264-24.704-29.738667-14.677333-45.866667 9.514667-15.36 31.232-20.138667 48.256-9.173333 53.76 34.688 87.466667 83.029333 97.792 146.773333 1.706667 10.581333 2.944 21.205333 4.394667 31.829333zM375.424 519.082667c-0.298667 32.256-25.6 57.813333-57.002667 57.6a57.856 57.856 0 0 1-57.045333-58.026667c0.213333-31.317333 27.392-58.624 57.514667-57.856a57.642667 57.642667 0 0 1 56.533333 58.282667z" fill="#727777" p-id="1348"></path></svg>